<svg style="display: none;" xmlns="http://www.w3.org/2000/svg">
    <symbol id="facebook" viewBox="0 0 512 512">
        <g>
            <path d="M288,176v-64c0-17.664,14.336-32,32-32h32V0h-64c-53.024,0-96,42.976-96,96v80h-64v80h64v256h96V256h64l32-80H288z"/>
        </g>
    </symbol>
    <symbol id="twitter" viewBox="-21 -81 681.33464 681">
        <g>
            <path d="m200.964844 515.292969c241.050781 0 372.871094-199.703125 372.871094-372.871094 0-5.671875-.117188-11.320313-.371094-16.9375 25.585937-18.5 47.824218-41.585937 65.371094-67.863281-23.480469 10.441406-48.753907 17.460937-75.257813 20.636718 27.054687-16.230468 47.828125-41.894531 57.625-72.488281-25.320313 15.011719-53.363281 25.917969-83.214844 31.808594-23.914062-25.472656-57.964843-41.402344-95.664062-41.402344-72.367188 0-131.058594 58.6875-131.058594 131.03125 0 10.289063 1.152344 20.289063 3.398437 29.882813-108.917968-5.480469-205.503906-57.625-270.132812-136.921875-11.25 19.363281-17.742188 41.863281-17.742188 65.871093 0 45.460938 23.136719 85.605469 58.316407 109.082032-21.5-.660156-41.695313-6.5625-59.351563-16.386719-.019531.550781-.019531 1.085937-.019531 1.671875 0 63.46875 45.171875 116.460938 105.144531 128.46875-11.015625 2.996094-22.605468 4.609375-34.558594 4.609375-8.429687 0-16.648437-.828125-24.632812-2.363281 16.683594 52.070312 65.066406 89.960937 122.425781 91.023437-44.855469 35.15625-101.359375 56.097657-162.769531 56.097657-10.5625 0-21.003906-.605469-31.2617188-1.816407 57.9999998 37.175781 126.8710938 58.871094 200.8867188 58.871094"/>
        </g>
    </symbol>
    <symbol id="google" viewBox="0 -91 512 512">
        <g>
            <path d="m166 60c34.667969 0 66.027344 17.789062 84 42.300781l42.597656-42.902343c-25.476562-33.128907-74.511718-59.398438-126.597656-59.398438-91.199219 0-166 73.800781-166 165s74.800781 165 166 165c75.601562 0 139.199219-50.699219 158.699219-120 4.199219-14.402344 6.300781-29.402344 6.300781-45v-15h-150v59.988281h79.5c-16.5 35.402344-52.800781 60.011719-94.5 60.011719-57.898438 0-106-47.101562-106-105s48.101562-105 106-105zm0 0"/>
            <path d="m466 90h-60v45h-45v60h45v45h60v-45h46v-60h-46zm0 0"/>
        </g>
    </symbol>
    <symbol id="dribble" viewBox="0 0 512 512">
        <g>
            <path d="M256,0C115.04,0,0,115.05,0,256c0,140.96,115.05,256,256,256c140.96,0,256-115.05,256-256C512,115.04,396.95,0,256,0z   M429.64,111.51c31.96,38.34,51.47,87.39,52.31,140.89c-40.06-9.37-84.55-10-129.86-1.74c-11.79,2.15-23.58,4.88-35.3,8.16  c-3.9-10.61-8.04-21.13-12.44-31.55c-4.49-10.63-9.23-21.08-14.19-31.38C344.15,175.27,402.65,144.57,429.64,111.51z M256,30  c58.82,0,112.45,22.59,152.7,59.54C393,110.95,348.26,142.12,276.48,169c-25.06-46.66-55.11-89.54-89.83-128.1  C208.51,33.83,231.82,30,256,30z M156.95,52.9c35.41,37.93,65.87,80.29,90.96,126.05c-74.68,24.17-150.29,34.03-212.46,27.66  C50.59,138.96,96.14,82.67,156.95,52.9z M30,256c0-6.64,0.31-13.21,0.87-19.7c13.72,1.45,28.03,2.18,42.82,2.18  c58.33,0,123.86-11.22,188.21-32.53c9.82,20.1,18.65,40.78,26.44,61.97c-25.09,9.02-49.51,20.49-72.44,34.14  c-56.22,33.47-97.35,76.53-114.41,118.71C57.52,379.51,30,320.91,30,256z M256,482c-48.29,0-93.09-15.23-129.86-41.14  c11.4-38.52,49.96-80.19,105.11-113.02c19.43-11.58,42.15-22.49,66.88-31.36c17.53,55.1,28.27,113.26,31.68,173.13  C306.67,477.63,281.84,482,256,482z M359.07,457.1c-4.16-58.32-15.02-115.1-32.45-169.64c48.6-13.36,102.58-17.84,153.77-4.56  C471.33,358.91,424.41,423.47,359.07,457.1z"/>
        </g>
    </symbol>
    <symbol id="linkedIn" viewBox="0 0 24 24">
        <g>
            <path d="m23.994 24v-.001h.006v-8.802c0-4.306-.927-7.623-5.961-7.623-2.42 0-4.044 1.328-4.707 2.587h-.07v-2.185h-4.773v16.023h4.97v-7.934c0-2.089.396-4.109 2.983-4.109 2.549 0 2.587 2.384 2.587 4.243v7.801z"/>
            <path d="m.396 7.977h4.976v16.023h-4.976z"/>
            <path d="m2.882 0c-1.591 0-2.882 1.291-2.882 2.882s1.291 2.909 2.882 2.909 2.882-1.318 2.882-2.909c-.001-1.591-1.292-2.882-2.882-2.882z"/>
        </g>
    </symbol>
</svg>