<svg style="display:none;" xmlns="http://www.w3.org/2000/svg">
    <symbol id="people" viewBox="0 0 57 36.636">
        <path id="Path_16" data-name="Path 16"
              d="M39.182,20.273a7.636,7.636,0,1,0-7.636-7.636A7.6,7.6,0,0,0,39.182,20.273Zm-20.364,0a7.636,7.636,0,1,0-7.636-7.636A7.6,7.6,0,0,0,18.818,20.273Zm0,5.091C12.887,25.364,1,28.342,1,34.273v6.364H36.636V34.273C36.636,28.342,24.749,25.364,18.818,25.364Zm20.364,0c-.738,0-1.578.051-2.469.127,2.953,2.138,5.015,5.015,5.015,8.782v6.364H57V34.273C57,28.342,45.113,25.364,39.182,25.364Z"
              transform="translate(-0.5 -4.5)" fill="none" stroke="#c1f7d5" stroke-width="1"/>
    </symbol>
    <symbol id="hand" viewBox="0 0 51.333 56">
        <g id="Path_24" data-name="Path 24" transform="translate(-1)" fill="none">
            <path d="M52.333,12.833V46.667A9.361,9.361,0,0,1,43,56H25.967a9.317,9.317,0,0,1-6.65-2.777L1,34.6s2.94-2.87,3.033-2.917a2.765,2.765,0,0,1,1.843-.677,2.851,2.851,0,0,1,1.4.373c.093.023,10.057,5.74,10.057,5.74V9.333a3.5,3.5,0,0,1,7,0V25.667h2.333V3.5a3.5,3.5,0,0,1,7,0V25.667H36V5.833a3.5,3.5,0,0,1,7,0V25.667h2.333V12.833a3.5,3.5,0,0,1,7,0Z"
                  stroke="none"/>
            <path d="M 30.16666603088379 1 C 28.78816604614258 1 27.66666603088379 2.121498107910156 27.66666603088379 3.5 L 27.66666603088379 25.66666984558105 L 27.66666603088379 26.66666984558105 L 26.66666603088379 26.66666984558105 L 24.33333587646484 26.66666984558105 L 23.33333587646484 26.66666984558105 L 23.33333587646484 25.66666984558105 L 23.33333587646484 9.333328247070313 C 23.33333587646484 7.954830169677734 22.21183586120605 6.833328247070313 20.83333587646484 6.833328247070313 C 19.45483779907227 6.833328247070313 18.33333587646484 7.954830169677734 18.33333587646484 9.333328247070313 L 18.33333587646484 37.12332916259766 L 18.33333587646484 38.85000991821289 L 16.83566665649414 37.99069976806641 C 13.18162536621094 35.89411926269531 7.708042144775391 32.76015472412109 6.916748046875 32.32411193847656 L 6.906215667724609 32.32147979736328 L 6.791027069091797 32.25749206542969 C 6.491256713867188 32.09095001220703 6.192165374755859 32.01000213623047 5.876667022705078 32.01000213623047 C 5.420284271240234 32.01000213623047 5.020004272460938 32.15583801269531 4.686954498291016 32.4434814453125 L 4.592357635498047 32.52519226074219 L 4.59130859375 32.52571105957031 C 4.315341949462891 32.77907180786133 3.390388488769531 33.67193222045898 2.417484283447266 34.61831665039063 L 20.02843475341797 52.52091979980469 C 21.60606575012207 54.11957931518555 23.7149658203125 55 25.96666526794434 55 L 42.99999618530273 55 C 45.21559524536133 55 47.30544662475586 54.13034057617188 48.88455581665039 52.55123138427734 C 50.46366500854492 50.97211074829102 51.33332443237305 48.88225936889648 51.33332443237305 46.66666030883789 L 51.33332443237305 12.83332824707031 C 51.33332443237305 11.45483016967773 50.21182632446289 10.33332824707031 48.83332443237305 10.33332824707031 C 47.45482635498047 10.33332824707031 46.33333587646484 11.45483016967773 46.33333587646484 12.83332824707031 L 46.33333587646484 25.66666984558105 L 46.33333587646484 26.66666984558105 L 45.33333587646484 26.66666984558105 L 42.99999618530273 26.66666984558105 L 41.99999618530273 26.66666984558105 L 41.99999618530273 25.66666984558105 L 41.99999618530273 5.833328247070313 C 41.99999618530273 4.454830169677734 40.87849426269531 3.333328247070313 39.49999618530273 3.333328247070313 C 38.12149810791016 3.333328247070313 36.99999618530273 4.454830169677734 36.99999618530273 5.833328247070313 L 36.99999618530273 25.66666984558105 L 36.99999618530273 26.66666984558105 L 35.99999618530273 26.66666984558105 L 33.66666412353516 26.66666984558105 L 32.66666412353516 26.66666984558105 L 32.66666412353516 25.66666984558105 L 32.66666412353516 3.5 C 32.66666412353516 2.121498107910156 31.545166015625 1 30.16666603088379 1 M 30.16666603088379 0 C 32.10333633422852 0 33.66666412353516 1.563331604003906 33.66666412353516 3.5 L 33.66666412353516 25.66666984558105 L 35.99999618530273 25.66666984558105 L 35.99999618530273 5.833328247070313 C 35.99999618530273 3.896671295166016 37.56332397460938 2.333328247070313 39.49999618530273 2.333328247070313 C 41.43666839599609 2.333328247070313 42.99999618530273 3.896671295166016 42.99999618530273 5.833328247070313 L 42.99999618530273 25.66666984558105 L 45.33333587646484 25.66666984558105 L 45.33333587646484 12.83332824707031 C 45.33333587646484 10.89667129516602 46.89666748046875 9.333328247070313 48.83332443237305 9.333328247070313 C 50.76999664306641 9.333328247070313 52.33332443237305 10.89667129516602 52.33332443237305 12.83332824707031 L 52.33332443237305 46.66666030883789 C 52.33332443237305 51.79999923706055 48.13333511352539 56 42.99999618530273 56 L 25.96666526794434 56 C 23.4466667175293 56 21.06666564941406 54.99665832519531 19.31666564941406 53.22333145141602 L 0.9999961853027344 34.60333251953125 C 0.9999961853027344 34.60333251953125 3.939994812011719 31.73332977294922 4.033336639404297 31.68666076660156 C 4.546665191650391 31.24333000183105 5.176666259765625 31.01000022888184 5.876667022705078 31.01000022888184 C 6.389995574951172 31.01000022888184 6.856666564941406 31.14999961853027 7.276664733886719 31.38332939147949 C 7.3699951171875 31.40666961669922 17.33333587646484 37.12332916259766 17.33333587646484 37.12332916259766 L 17.33333587646484 9.333328247070313 C 17.33333587646484 7.396671295166016 18.89666748046875 5.833328247070313 20.83333587646484 5.833328247070313 C 22.76999664306641 5.833328247070313 24.33333587646484 7.396671295166016 24.33333587646484 9.333328247070313 L 24.33333587646484 25.66666984558105 L 26.66666603088379 25.66666984558105 L 26.66666603088379 3.5 C 26.66666603088379 1.563331604003906 28.22999572753906 0 30.16666603088379 0 Z"
                  stroke="none" fill="#c1f7d5"/>
        </g>
    </symbol>
    <symbol id="flower" viewBox="0 0 46.836 56">
        <g id="Path_23" data-name="Path 23" transform="translate(-3 -1)" fill="none">
            <path d="M26.418,57C39.35,57,49.836,46.253,49.836,33,36.9,33,26.418,43.747,26.418,57ZM9.765,25.667a6.59,6.59,0,0,0,6.505,6.667,6.364,6.364,0,0,0,3.695-1.173l-.052.507a6.507,6.507,0,1,0,13.01,0l-.052-.507a6.3,6.3,0,0,0,3.695,1.173A6.68,6.68,0,0,0,39.35,19.667,6.68,6.68,0,0,0,36.566,7a6.364,6.364,0,0,0-3.695,1.173l.052-.507a6.507,6.507,0,1,0-13.01,0l.052.507A6.3,6.3,0,0,0,16.27,7a6.68,6.68,0,0,0-2.784,12.667A6.656,6.656,0,0,0,9.765,25.667ZM26.418,13a6.669,6.669,0,1,1-6.505,6.667A6.59,6.59,0,0,1,26.418,13ZM3,33C3,46.253,13.486,57,26.418,57,26.418,43.747,15.932,33,3,33Z"
                  stroke="none"/>
            <path d="M 27.43976020812988 55.97676467895508 C 30.10232543945313 55.85526657104492 32.68649291992188 55.25783920288086 35.13521957397461 54.19625854492188 C 37.80397033691406 53.03929138183594 40.20145034790039 51.38240051269531 42.26105880737305 49.27162170410156 C 44.32233047485352 47.15913009643555 45.94079208374023 44.69905090332031 47.07147979736328 41.95970916748047 C 48.11362457275391 39.43490600585938 48.6985969543457 36.76980972290039 48.81478118896484 34.02323532104492 C 46.15221405029297 34.14473342895508 43.56804656982422 34.74216079711914 41.11931991577148 35.80374145507813 C 38.45056915283203 36.96070861816406 36.0530891418457 38.61759948730469 33.99348068237305 40.72837829589844 C 31.93221092224121 42.84086990356445 30.31375122070313 45.30094909667969 29.18305969238281 48.04029083251953 C 28.14091682434082 50.56509399414063 27.55594444274902 53.23019027709961 27.43976020812988 55.97676467895508 M 25.3966007232666 55.97676467895508 C 25.28041648864746 53.23019027709961 24.69544410705566 50.56509399414063 23.65330123901367 48.04029083251953 C 22.52260971069336 45.30094909667969 20.90415000915527 42.84086990356445 18.84288024902344 40.72837829589844 C 16.78326988220215 38.61759948730469 14.38579082489014 36.96070861816406 11.71704006195068 35.80374145507813 C 9.268313407897949 34.74216079711914 6.684145927429199 34.14473342895508 4.021579742431641 34.02323532104492 C 4.137765407562256 36.76980972290039 4.722736358642578 39.43490600585938 5.764880657196045 41.95970916748047 C 6.895570278167725 44.69905090332031 8.514030456542969 47.15913009643555 10.5753002166748 49.27162170410156 C 12.63491058349609 51.38240051269531 15.03239059448242 53.03929138183594 17.70114135742188 54.19625854492188 C 20.14986801147461 55.25783920288086 22.73403549194336 55.85526657104492 25.3966007232666 55.97676467895508 M 26.41818046569824 37.33332824707031 C 29.43773651123047 37.33332824707031 31.89728736877441 34.81798553466797 31.92302513122559 31.71591377258301 L 31.87642097473145 31.26217079162598 L 31.64949989318848 29.05286026000977 L 33.4541015625 30.34745979309082 C 34.35314178466797 30.99242973327637 35.42924118041992 31.33333969116211 36.56605911254883 31.33333969116211 C 39.6015510559082 31.33333969116211 42.07110977172852 28.79128074645996 42.07110977172852 25.66666030883789 C 42.07110977172852 24.57279968261719 41.76519012451172 23.51347923278809 41.18643188476563 22.60321044921875 C 40.6269416809082 21.7232494354248 39.84033203125 21.01856994628906 38.91164016723633 20.56534957885742 L 37.07012939453125 19.66666030883789 L 38.91164016723633 18.76796913146973 C 39.84033203125 18.31475067138672 40.6269416809082 17.61006927490234 41.18643188476563 16.7301197052002 C 41.76519012451172 15.81984996795654 42.07110977172852 14.76053047180176 42.07110977172852 13.66666984558105 C 42.07110977172852 10.54205989837646 39.6015510559082 8 36.56605911254883 8 C 35.43587875366211 8 34.38566207885742 8.333959579467773 33.4445915222168 8.992609977722168 L 31.65299034118652 10.24652004241943 L 31.87642097473145 8.071160316467285 L 31.92302513122559 7.617415428161621 C 31.89728736877441 4.515344142913818 29.43773651123047 2 26.41818046569824 2 C 23.39862442016602 2 20.93907356262207 4.515344142913818 20.9133358001709 7.617415428161621 L 20.95993995666504 8.071160316467285 L 21.18686103820801 10.28046989440918 L 19.38226127624512 8.985870361328125 C 18.48323059082031 8.340909957885742 17.40713119506836 8 16.27029991149902 8 C 13.2348108291626 8 10.76525020599365 10.54205989837646 10.76525020599365 13.66666984558105 C 10.76525020599365 14.76053047180176 11.07117080688477 15.81984996795654 11.64993000030518 16.7301197052002 C 12.2094202041626 17.61006927490234 12.99603080749512 18.31475067138672 13.92472076416016 18.76796913146973 L 15.76622009277344 19.66666030883789 L 13.92472076416016 20.56534957885742 C 12.99603080749512 21.01856994628906 12.2094202041626 21.7232494354248 11.64993000030518 22.60321044921875 C 11.07117080688477 23.51347923278809 10.76525020599365 24.57279968261719 10.76525020599365 25.66666030883789 C 10.76525020599365 28.79128074645996 13.2348108291626 31.33333969116211 16.27029991149902 31.33333969116211 C 17.40048027038574 31.33333969116211 18.45069122314453 30.99938011169434 19.39177131652832 30.34073066711426 L 21.18337059020996 29.08679008483887 L 20.95993995666504 31.26217079162598 L 20.9133358001709 31.71591377258301 C 20.93907356262207 34.81798553466797 23.39862442016602 37.33332824707031 26.41818046569824 37.33332824707031 M 26.41818046569824 12 C 30.55648040771484 12 33.9232292175293 15.43924999237061 33.9232292175293 19.66666030883789 C 33.9232292175293 23.89407920837402 30.55648040771484 27.33333015441895 26.41818046569824 27.33333015441895 C 22.27988052368164 27.33333015441895 18.91312980651855 23.89407920837402 18.91312980651855 19.66666030883789 C 18.91312980651855 15.43924999237061 22.27988052368164 12 26.41818046569824 12 M 26.41818046569824 57 C 13.48614025115967 57 3.000000476837158 46.25333023071289 3.000000476837158 33 C 15.93204021453857 33 26.41818046569824 43.74666976928711 26.41818046569824 57 Z M 26.41818046569824 57 C 26.41818046569824 43.74666976928711 36.90431976318359 33 49.83636093139648 33 C 49.83636093139648 46.25333023071289 39.3502197265625 57 26.41818046569824 57 Z M 26.41818046569824 38.33332824707031 C 22.82739067077637 38.33332824707031 19.91312980651855 35.3466682434082 19.91312980651855 31.66666030883789 L 19.96516990661621 31.15999984741211 C 18.89834976196289 31.90666007995605 17.64937019348145 32.33333969116211 16.27029991149902 32.33333969116211 C 12.67952060699463 32.33333969116211 9.765250205993652 29.34666061401367 9.765250205993652 25.66666030883789 C 9.765250205993652 23 11.30045032501221 20.73332977294922 13.48614025115967 19.66666030883789 C 11.30045032501221 18.60000038146973 9.765250205993652 16.33333015441895 9.765250205993652 13.66666984558105 C 9.765250205993652 9.986669540405273 12.67952060699463 7 16.27029991149902 7 C 17.64937019348145 7 18.92436981201172 7.426670074462891 19.96516990661621 8.173330307006836 L 19.91312980651855 7.666669845581055 C 19.91312980651855 3.986670017242432 22.82739067077637 1 26.41818046569824 1 C 30.00897026062012 1 32.9232292175293 3.986670017242432 32.9232292175293 7.666669845581055 L 32.87118911743164 8.173330307006836 C 33.93801879882813 7.426670074462891 35.18698883056641 7 36.56605911254883 7 C 40.15684127807617 7 43.07110977172852 9.986669540405273 43.07110977172852 13.66666984558105 C 43.07110977172852 16.33333015441895 41.53591918945313 18.60000038146973 39.3502197265625 19.66666030883789 C 41.53591918945313 20.73332977294922 43.07110977172852 23 43.07110977172852 25.66666030883789 C 43.07110977172852 29.34666061401367 40.15684127807617 32.33333969116211 36.56605911254883 32.33333969116211 C 35.18698883056641 32.33333969116211 33.91199111938477 31.90666007995605 32.87118911743164 31.15999984741211 L 32.9232292175293 31.66666030883789 C 32.9232292175293 35.3466682434082 30.00897026062012 38.33332824707031 26.41818046569824 38.33332824707031 Z M 26.41818046569824 13 C 22.82739067077637 13 19.91312980651855 15.98666954040527 19.91312980651855 19.66666030883789 C 19.91312980651855 23.34666061401367 22.82739067077637 26.33333015441895 26.41818046569824 26.33333015441895 C 30.00897026062012 26.33333015441895 32.9232292175293 23.34666061401367 32.9232292175293 19.66666030883789 C 32.9232292175293 15.98666954040527 30.00897026062012 13 26.41818046569824 13 Z"
                  stroke="none" fill="#c1f7d5"/>
        </g>
    </symbol>
    <symbol id="heart" viewBox="0 0 56 54.223">
        <g id="Path_14" data-name="Path 14" transform="translate(-2 -3)" fill="none">
            <path d="M30,57.223l-4.06-3.9C11.52,39.523,2,30.422,2,19.252,2,10.151,8.776,3,17.4,3A16.424,16.424,0,0,1,30,9.176,16.424,16.424,0,0,1,42.6,3C51.224,3,58,10.151,58,19.252c0,11.17-9.52,20.271-23.94,34.1Z"
                  stroke="none"/>
            <path d="M 30.00262832641602 55.83888626098633 L 33.36783981323242 52.63037872314453 L 33.47837829589844 52.52436828613281 C 40.49845123291016 45.79198837280273 46.56119918823242 39.97770690917969 50.67839050292969 34.65179824829102 C 52.81180953979492 31.89206886291504 54.34793853759766 29.36898803710938 55.37454986572266 26.93839836120605 C 56.46831130981445 24.34884834289551 57 21.83465766906738 57 19.25214767456055 C 57 10.699538230896 50.67477035522461 3.999997854232788 42.59999847412109 3.999997854232788 C 38.13003158569336 3.999997854232788 33.71067810058594 6.169638156890869 30.77824020385742 9.803788185119629 L 30 10.76824760437012 L 29.22175979614258 9.803788185119629 C 26.28931999206543 6.169638156890869 21.86997032165527 3.999997854232788 17.39999961853027 3.999997854232788 C 9.325229644775391 3.999997854232788 3 10.699538230896 3 19.25214767456055 C 3 21.83909797668457 3.533509969711304 24.35744857788086 4.631010055541992 26.95109748840332 C 5.661089897155762 29.38542747497559 7.202330112457275 31.91210746765137 9.342789649963379 34.67549896240234 C 13.47340965270996 40.00824737548828 19.55455017089844 45.82773971557617 26.5959300994873 52.56613922119141 L 26.63279914855957 52.6014289855957 L 30.00262832641602 55.83888626098633 M 30 57.22307968139648 L 25.94000053405762 53.32255935668945 C 11.52000045776367 39.52300643920898 2 30.42179870605469 2 19.25214767456055 C 2 10.15094757080078 8.776000022888184 2.999997854232788 17.39999961853027 2.999997854232788 C 22.27199935913086 2.999997854232788 26.94799995422363 5.393497943878174 30 9.175817489624023 C 33.05199813842773 5.393497943878174 37.72800064086914 2.999997854232788 42.59999847412109 2.999997854232788 C 51.2239990234375 2.999997854232788 58 10.15094757080078 58 19.25214767456055 C 58 30.42179870605469 48.47999954223633 39.52300643920898 34.06000137329102 53.35211944580078 L 30 57.22307968139648 Z"
                  stroke="none" fill="#c1f7d5"/>
        </g>
    </symbol>
    <symbol id="earth" viewBox="0 0 58 58">
        <g id="Icon_earth" data-name="Icon earth" clip-path="url(#clip-path)">
            <g id="Path_27" data-name="Path 27" transform="translate(-1 -1)" fill="none">
                <path d="M27.2,52.2A22.368,22.368,0,0,1,7.6,30a22.73,22.73,0,0,1,.588-5.012L21.6,38.4v2.8a5.616,5.616,0,0,0,5.6,5.6Zm19.32-7.112A5.555,5.555,0,0,0,41.2,41.2H38.4V32.8A2.808,2.808,0,0,0,35.6,30H18.8V24.4h5.6a2.808,2.808,0,0,0,2.8-2.8V16h5.6a5.616,5.616,0,0,0,5.6-5.6V9.252a22.35,22.35,0,0,1,8.12,35.84Z"
                      stroke="none"/>
                <path d="M 26.20000076293945 51.04177856445313 L 26.20000076293945 47.72439193725586 C 23.03352928161621 47.2411003112793 20.60000038146973 44.49940490722656 20.60000038146973 41.20000076293945 L 20.60000038146973 38.8142204284668 L 8.822525024414063 27.03674507141113 C 8.673293113708496 28.05341911315918 8.600000381469727 29.03366851806641 8.600000381469727 30 C 8.600000381469727 35.24977874755859 10.51756000518799 40.29512023925781 13.99942970275879 44.20660018920898 C 17.19999122619629 47.80204391479492 21.49802017211914 50.20199584960938 26.20000076293945 51.04177856445313 M 46.76397705078125 43.26649856567383 C 49.76358413696289 39.49176025390625 51.40000152587891 34.83597183227539 51.40000152587891 30 C 51.40000152587891 25.66495132446289 50.10414886474609 21.48937034606934 47.65254974365234 17.92465972900391 C 45.54214477539063 14.85607242584229 42.70535659790039 12.41130828857422 39.38869094848633 10.78865337371826 C 39.18696212768555 14.24781703948975 36.30886459350586 17 32.79999923706055 17 L 28.20000076293945 17 L 28.20000076293945 21.59999084472656 C 28.20000076293945 23.69532012939453 26.49533081054688 25.40000152587891 24.39999961853027 25.40000152587891 L 19.79999923706055 25.40000152587891 L 19.79999923706055 29 L 35.59999847412109 29 C 37.69533157348633 29 39.40000152587891 30.70466995239258 39.40000152587891 32.79999160766602 L 39.40000152587891 40.19998931884766 L 41.20000076293945 40.19998931884766 C 43.50116348266602 40.19998931884766 45.57710266113281 41.3839225769043 46.76397705078125 43.26649856567383 M 27.20000076293945 52.20400238037109 C 16.13999938964844 50.83200073242188 7.599999904632568 41.42399978637695 7.599999904632568 30 C 7.599999904632568 28.26399993896484 7.823999881744385 26.61200141906738 8.187999725341797 24.98800086975098 L 21.60000038146973 38.40000152587891 L 21.60000038146973 41.20000076293945 C 21.60000038146973 44.27999877929688 24.1200008392334 46.79999923706055 27.20000076293945 46.79999923706055 L 27.20000076293945 52.20400238037109 Z M 46.52000045776367 45.09199905395508 C 45.79199981689453 42.82400131225586 43.72000122070313 41.19998931884766 41.20000076293945 41.19998931884766 L 38.40000152587891 41.19998931884766 L 38.40000152587891 32.79999160766602 C 38.40000152587891 31.25999069213867 37.13999938964844 30 35.59999847412109 30 L 18.79999923706055 30 L 18.79999923706055 24.40000152587891 L 24.39999961853027 24.40000152587891 C 25.94000053405762 24.40000152587891 27.20000076293945 23.14000129699707 27.20000076293945 21.59999084472656 L 27.20000076293945 16 L 32.79999923706055 16 C 35.88000106811523 16 38.40000152587891 13.48000049591064 38.40000152587891 10.40000057220459 L 38.40000152587891 9.25200080871582 C 46.60400009155273 12.58400058746338 52.40000152587891 20.6200008392334 52.40000152587891 30 C 52.40000152587891 35.82400131225586 50.15999984741211 41.11600112915039 46.52000045776367 45.09199905395508 Z"
                      stroke="none" fill="#c1f7d5"/>
            </g>
            <g id="Path_80" data-name="Path 80" transform="translate(-1 -1)" fill="none">
                <path d="M30,2A28,28,0,1,0,58,30,28.01,28.01,0,0,0,30,2Z" stroke="none"/>
                <path d="M 30 2 C 14.54399871826172 2 2 14.54399871826172 2 30 C 2 45.45600128173828 14.54399871826172 58 30 58 C 45.45600128173828 58 58 45.45600128173828 58 30 C 58 14.54399871826172 45.45600128173828 2 30 2 M 30 1 C 33.91252136230469 1 37.70941925048828 1.767299652099609 41.28523254394531 3.280570983886719 C 44.73820877075195 4.741859436035156 47.83955001831055 6.833328247070313 50.50310897827148 9.496891021728516 C 53.16667175292969 12.16044998168945 55.25814056396484 15.26179122924805 56.71942901611328 18.71477127075195 C 58.23270034790039 22.29058074951172 59 26.08747863769531 59 30 C 59 33.91252136230469 58.23270034790039 37.70941925048828 56.71942901611328 41.28523254394531 C 55.25814056396484 44.73820877075195 53.16667175292969 47.83955001831055 50.50310897827148 50.50310897827148 C 47.83955001831055 53.16667175292969 44.73820877075195 55.25814056396484 41.28523254394531 56.71942901611328 C 37.70941925048828 58.23270034790039 33.91252136230469 59 30 59 C 26.08747863769531 59 22.29058074951172 58.23270034790039 18.71477127075195 56.71942901611328 C 15.26179122924805 55.25814056396484 12.16044998168945 53.16667175292969 9.496891021728516 50.50310897827148 C 6.833328247070313 47.83955001831055 4.741859436035156 44.73820877075195 3.280570983886719 41.28523254394531 C 1.767299652099609 37.70941925048828 1 33.91252136230469 1 30 C 1 26.08747863769531 1.767299652099609 22.29058074951172 3.280570983886719 18.71477127075195 C 4.741859436035156 15.26179122924805 6.833328247070313 12.16044998168945 9.496891021728516 9.496891021728516 C 12.16044998168945 6.833328247070313 15.26179122924805 4.741859436035156 18.71477127075195 3.280570983886719 C 22.29058074951172 1.767299652099609 26.08747863769531 1 30 1 Z"
                      stroke="none" fill="#c1f7d5"/>
            </g>
        </g>
    </symbol>
    <symbol id="person" viewBox="0 0 53.846 56">
        <g id="Path_5" data-name="Path 5" transform="translate(-3 -2)" fill="none">
            <path d="M55.35,13.2A108.332,108.332,0,0,1,29.923,16,108.332,108.332,0,0,1,4.5,13.2L3,18.8a112.7,112.7,0,0,0,17.949,2.8V58h5.983V41.2h5.983V58H38.9V21.6a112.7,112.7,0,0,0,17.949-2.8Zm-25.427,0a5.818,5.818,0,0,0,5.983-5.6A5.818,5.818,0,0,0,29.923,2,5.818,5.818,0,0,0,23.94,7.6,5.818,5.818,0,0,0,29.923,13.2Z"
                  stroke="none"/>
            <path d="M 29.9230785369873 3.000003814697266 C 28.5863094329834 3.000003814697266 27.32837677001953 3.488353729248047 26.38100814819336 4.375080108642578 C 25.45187759399414 5.244762420654297 24.94017791748047 6.390052795410156 24.94017791748047 7.600002288818359 C 24.94017791748047 8.809951782226563 25.45187759399414 9.955242156982422 26.38100814819336 10.82492065429688 C 27.32837677001953 11.71165084838867 28.5863094329834 12.20000076293945 29.9230785369873 12.20000076293945 C 31.25984764099121 12.20000076293945 32.51777648925781 11.71165084838867 33.46514892578125 10.82492065429688 C 34.394287109375 9.955242156982422 34.90599060058594 8.809951782226563 34.90599060058594 7.600002288818359 C 34.90599060058594 6.390052795410156 34.394287109375 5.244762420654297 33.46514892578125 4.375080108642578 C 32.51777648925781 3.488353729248047 31.25984764099121 3.000003814697266 29.9230785369873 3.000003814697266 M 54.63668060302734 14.40296936035156 C 47.53188705444336 16.08037185668945 38.80429458618164 17.00000381469727 29.9230785369873 17.00000381469727 C 21.04185104370117 17.00000381469727 12.31426239013672 16.08037185668945 5.209476470947266 14.40296936035156 L 4.229774475097656 18.07095718383789 C 9.137592315673828 19.2342643737793 15.05539703369141 20.12796401977539 21.02803039550781 20.60315322875977 L 21.9487190246582 20.6764030456543 L 21.9487190246582 21.60000228881836 L 21.9487190246582 57 L 25.9316291809082 57 L 25.9316291809082 41.20000457763672 L 25.9316291809082 40.20000457763672 L 26.9316291809082 40.20000457763672 L 32.91452789306641 40.20000457763672 L 33.91452789306641 40.20000457763672 L 33.91452789306641 41.20000457763672 L 33.91452789306641 57 L 37.89743804931641 57 L 37.89743804931641 21.60000228881836 L 37.89743804931641 20.6764030456543 L 38.81813049316406 20.60315322875977 C 44.79074859619141 20.12796401977539 50.70855712890625 19.2342643737793 55.61637878417969 18.07095718383789 L 54.63668060302734 14.40296936035156 M 29.9230785369873 2.000003814697266 C 33.21367645263672 2.000003814697266 35.90599060058594 4.520000457763672 35.90599060058594 7.600002288818359 C 35.90599060058594 10.68000030517578 33.21367645263672 13.20000076293945 29.9230785369873 13.20000076293945 C 26.63247680664063 13.20000076293945 23.94017791748047 10.68000030517578 23.94017791748047 7.600002288818359 C 23.94017791748047 4.520000457763672 26.63247680664063 2.000003814697266 29.9230785369873 2.000003814697266 Z M 4.4957275390625 13.20000076293945 C 12.30341720581055 15.16000366210938 21.45726776123047 16.00000381469727 29.9230785369873 16.00000381469727 C 38.38888931274414 16.00000381469727 47.54272842407227 15.16000366210938 55.35042953491211 13.20000076293945 L 56.84615707397461 18.80000305175781 C 51.28204727172852 20.20000076293945 44.88034057617188 21.12400054931641 38.89743804931641 21.60000228881836 L 38.89743804931641 58 L 32.91452789306641 58 L 32.91452789306641 41.20000457763672 L 26.9316291809082 41.20000457763672 L 26.9316291809082 58 L 20.9487190246582 58 L 20.9487190246582 21.60000228881836 C 14.9658203125 21.12400054931641 8.564098358154297 20.20000076293945 3 18.80000305175781 L 4.4957275390625 13.20000076293945 Z"
                  stroke="none" fill="#c1f7d5"/>
        </g>
    </symbol>
    <symbol id="sun" viewBox="0 0 56 56">
        <g id="Path_10" data-name="Path 10" transform="translate(-0.69 -0.69)" fill="none">
            <path d="M48.5,36.885,56.69,28.69,48.5,20.5V8.885H36.885L28.69.69,20.5,8.885H8.885V20.5L.69,28.69l8.195,8.195V48.5H20.5L28.69,56.69,36.885,48.5H48.5V36.885ZM28.69,43.544A14.854,14.854,0,1,1,43.544,28.69,14.866,14.866,0,0,1,28.69,43.544Z"
                  stroke="none"/>
            <path d="M 28.69000053405762 55.27577972412109 L 36.17741012573242 47.78837203979492 L 36.47031021118164 47.49547958374023 L 36.884521484375 47.49547958374023 L 47.49547958374023 47.49547958374023 L 47.49547958374023 36.884521484375 L 47.49547958374023 36.47031021118164 L 47.78837203979492 36.17741012573242 L 55.27577972412109 28.69000053405762 L 47.78837203979492 21.20259094238281 L 47.49547958374023 20.90969085693359 L 47.49547958374023 20.49547958374023 L 47.49547958374023 9.884520530700684 L 36.884521484375 9.884520530700684 L 36.47031021118164 9.884520530700684 L 36.17741012573242 9.591630935668945 L 28.69000053405762 2.104220628738403 L 21.20259094238281 9.591630935668945 L 20.90969085693359 9.884520530700684 L 20.49547958374023 9.884520530700684 L 9.884520530700684 9.884520530700684 L 9.884520530700684 20.49547958374023 L 9.884520530700684 20.90969085693359 L 9.591630935668945 21.20259094238281 L 2.104220628738403 28.69000053405762 L 9.591630935668945 36.17741012573242 L 9.884520530700684 36.47031021118164 L 9.884520530700684 36.884521484375 L 9.884520530700684 47.49547958374023 L 20.49547958374023 47.49547958374023 L 20.90969085693359 47.49547958374023 L 21.20259094238281 47.78837203979492 L 28.69000053405762 55.27577972412109 M 28.69000053405762 12.8358907699585 C 37.43199157714844 12.8358907699585 44.54410934448242 19.94801139831543 44.54410934448242 28.69000053405762 C 44.54410934448242 37.43199157714844 37.43199157714844 44.54410934448242 28.69000053405762 44.54410934448242 C 19.94801139831543 44.54410934448242 12.8358907699585 37.43199157714844 12.8358907699585 28.69000053405762 C 12.8358907699585 19.94801139831543 19.94801139831543 12.8358907699585 28.69000053405762 12.8358907699585 M 28.69000053405762 56.69000244140625 L 20.49547958374023 48.49547958374023 L 8.884520530700684 48.49547958374023 L 8.884520530700684 36.884521484375 L 0.6900005340576172 28.69000053405762 L 8.884520530700684 20.49547958374023 L 8.884520530700684 8.884520530700684 L 20.49547958374023 8.884520530700684 L 28.69000053405762 0.6900005340576172 L 36.884521484375 8.884520530700684 L 48.49547958374023 8.884520530700684 L 48.49547958374023 20.49547958374023 L 56.69000244140625 28.69000053405762 L 48.49547958374023 36.884521484375 L 48.49547958374023 48.49547958374023 L 36.884521484375 48.49547958374023 L 28.69000053405762 56.69000244140625 Z M 28.69000053405762 13.8358907699585 C 20.49547958374023 13.8358907699585 13.8358907699585 20.49547958374023 13.8358907699585 28.69000053405762 C 13.8358907699585 36.884521484375 20.49547958374023 43.54410934448242 28.69000053405762 43.54410934448242 C 36.884521484375 43.54410934448242 43.54410934448242 36.884521484375 43.54410934448242 28.69000053405762 C 43.54410934448242 20.49547958374023 36.884521484375 13.8358907699585 28.69000053405762 13.8358907699585 Z"
                  stroke="none" fill="#c1f7d5"/>
        </g>
    </symbol>
    <symbol id="book" viewBox="0 0 58 45.488">
        <g id="Icon_book" data-name="Icon book" clip-path="url(#clip-path)">
            <g id="Path_20" data-name="Path 20" transform="translate(0 -3.5)" fill="none">
                <path d="M51.909,5.773A30.048,30.048,0,0,0,43,4.5c-4.964,0-10.309,1.018-14,3.818C25.309,5.518,19.964,4.5,15,4.5S4.691,5.518,1,8.318V45.609a1.369,1.369,0,0,0,1.273,1.273c.255,0,.382-.127.636-.127A31.068,31.068,0,0,1,15,43.955c4.964,0,10.309,1.018,14,3.818a30.661,30.661,0,0,1,14-3.818,25.908,25.908,0,0,1,12.091,2.673,1.147,1.147,0,0,0,.636.127A1.369,1.369,0,0,0,57,45.482V8.318A17.361,17.361,0,0,0,51.909,5.773Z"
                      stroke="none"/>
                <path d="M 14.99999618530273 4.499992370605469 C 10.03636932373047 4.499992370605469 4.690906524658203 5.518184661865234 0.9999961853027344 8.318183898925781 L 0.9999961853027344 45.60908508300781 C 0.9999961853027344 46.24545288085938 1.636356353759766 46.88181304931641 2.272727966308594 46.88181304931641 C 2.527267456054688 46.88181304931641 2.654548645019531 46.75454330444336 2.909088134765625 46.75454330444336 C 6.345458984375 45.10000610351563 11.30908966064453 43.95454406738281 14.99999618530273 43.95454406738281 C 19.96363830566406 43.95454406738281 25.30909729003906 44.97272491455078 28.99999809265137 47.77272415161133 C 32.43635559082031 45.60908508300781 38.6727294921875 43.95454406738281 43 43.95454406738281 C 47.19999694824219 43.95454406738281 51.52726745605469 44.71818542480469 55.09090805053711 46.62727355957031 C 55.3454475402832 46.75454330444336 55.47272872924805 46.75454330444336 55.72726821899414 46.75454330444336 C 56.36362838745117 46.75454330444336 57 46.1181755065918 57 45.48181533813477 L 57 8.318183898925781 C 55.47272872924805 7.172725677490234 53.81817626953125 6.409095764160156 51.90908813476563 5.772724151611328 C 49.08362579345703 4.881813049316406 45.97817993164063 4.499992370605469 43 4.499992370605469 C 38.03635787963867 4.499992370605469 32.69091033935547 5.518184661865234 28.99999809265137 8.318183898925781 C 25.30909729003906 5.518184661865234 19.96363830566406 4.499992370605469 14.99999618530273 4.499992370605469 M 14.99999618530273 3.499992370605469 C 17.76303863525391 3.499992370605469 20.36035919189453 3.799083709716797 22.71980667114258 4.388942718505859 C 25.15632247924805 4.998073577880859 27.26504135131836 5.904365539550781 29 7.086894989013672 C 30.73496246337891 5.904365539550781 32.84367370605469 4.998073577880859 35.28018951416016 4.388942718505859 C 37.63964080810547 3.799083709716797 40.23695755004883 3.499992370605469 43 3.499992370605469 C 46.28844833374023 3.499992370605469 49.47314834594727 3.956104278564453 52.20980834960938 4.819015502929688 L 52.21758651733398 4.821464538574219 L 52.22531890869141 4.824043273925781 C 54.44430923461914 5.563713073730469 56.1019172668457 6.394615173339844 57.59999847412109 7.518184661865234 L 58 7.818183898925781 L 58 8.318183898925781 L 58 45.48181533813477 C 58 46.67128372192383 56.9167366027832 47.75454330444336 55.72726821899414 47.75454330444336 C 55.42350006103516 47.75454330444336 55.10937881469727 47.75454330444336 54.64369964599609 47.52170562744141 L 54.63109970092773 47.51540374755859 L 54.61868667602539 47.50875473022461 C 51.49951934814453 45.83777236938477 47.48184967041016 44.95454406738281 43 44.95454406738281 C 38.78328704833984 44.95454406738281 32.74193572998047 46.59839248657227 29.53280830383301 48.61895370483398 L 28.94706726074219 48.98776245117188 L 28.39560890197754 48.56941223144531 C 25.32282638549805 46.23833465576172 20.56550979614258 44.95454406738281 14.99999618530273 44.95454406738281 C 11.43943786621094 44.95454406738281 6.645866394042969 46.06523513793945 3.342899322509766 47.65554428100586 L 3.137287139892578 47.75454330444336 L 2.944488525390625 47.75454330444336 C 2.932819366455078 47.75830078125 2.918743133544922 47.76299285888672 2.907127380371094 47.76686477661133 C 2.778148651123047 47.80985260009766 2.562267303466797 47.88181304931641 2.272727966308594 47.88181304931641 C 1.083259582519531 47.88181304931641 -3.814697265625e-06 46.79855346679688 -3.814697265625e-06 45.60908508300781 L -3.814697265625e-06 8.318183898925781 L -3.814697265625e-06 7.821613311767578 L 0.3956069946289063 7.521495819091797 C 2.2369384765625 6.124622344970703 4.553237915039063 5.070682525634766 7.280189514160156 4.388942718505859 C 9.6396484375 3.799083709716797 12.23696899414063 3.499992370605469 14.99999618530273 3.499992370605469 Z"
                      stroke="none" fill="#c1f7d5"/>
            </g>
            <g id="Path_81" data-name="Path 81" transform="translate(0 -3.5)" fill="none">
                <path d="M51.909,40.136A29.579,29.579,0,0,0,43,38.864a30.661,30.661,0,0,0-14,3.818V13.409A30.661,30.661,0,0,1,43,9.591a29.579,29.579,0,0,1,8.909,1.273Z"
                      stroke="none"/>
                <path d="M 30.00000381469727 40.98476409912109 C 33.65298843383789 39.17966461181641 38.99477005004883 37.86363220214844 42.99999237060547 37.86363220214844 C 45.8400993347168 37.86363220214844 48.49380493164063 38.18082046508789 50.90908432006836 38.80772018432617 L 50.90908432006836 11.60715675354004 C 48.52765655517578 10.93249797821045 45.87120056152344 10.59090423583984 42.99999237060547 10.59090423583984 C 38.97992324829102 10.59090423583984 33.30165481567383 12.08487606048584 30.00000381469727 13.97510242462158 L 30.00000381469727 40.98476409912109 M 29.00000381469727 42.68182373046875 L 29.00000381469727 13.40909385681152 C 32.43636322021484 11.24545383453369 38.67272567749023 9.590904235839844 42.99999237060547 9.590904235839844 C 46.05454254150391 9.590904235839844 49.10909271240234 9.972723960876465 51.90908432006836 10.86363410949707 L 51.90908432006836 40.1363639831543 C 49.10909271240234 39.24545288085938 46.05454254150391 38.86363220214844 42.99999237060547 38.86363220214844 C 38.67272567749023 38.86363220214844 32.43636322021484 40.51818466186523 29.00000381469727 42.68182373046875 Z"
                      stroke="none" fill="#c1f7d5"/>
            </g>
        </g>
    </symbol>
</svg>